<svg width="189" height="221" viewBox="0 0 189 221" fill="none" xmlns="http://www.w3.org/2000/svg">
<path d="M125.94 62.23C126.187 61.1967 126.437 60.1633 126.69 59.13C127.623 55.35 126.32 52.79 122.78 51.45C116.02 48.88 108.79 51.51 103.21 55.73C102.163 56.5167 101.07 57.2633 99.93 57.97C99.6433 58.1567 99.3367 58.1933 99.01 58.08C94.04 56.37 89.25 56.86 86.29 61.52C82.38 67.68 80.37 78.2 78.76 85.77C78.5667 86.6833 78.8367 86.85 79.57 86.27C87.12 80.3 94.09 77.32 103.95 78.84C109.197 79.6533 114.133 81.3433 118.76 83.91C119.827 84.5033 120.683 84.5733 121.33 84.12C123.797 82.4067 126.243 80.6667 128.67 78.9C133.44 75.42 135.81 69.16 130.45 64.95C129.27 64.02 127.8 63.51 126.32 62.96C125.98 62.8267 125.853 62.5833 125.94 62.23Z" stroke="#BF6227" stroke-width="2"/>
<path d="M123.41 101.88C123.403 101.327 123.307 100.83 123.12 100.39C123.081 100.296 123.017 100.215 122.935 100.156C122.852 100.097 122.755 100.062 122.654 100.056C122.553 100.05 122.452 100.072 122.363 100.121C122.273 100.169 122.2 100.242 122.15 100.33C116.577 110.01 115.95 119.887 120.27 129.96C122.297 134.693 125.793 137.667 130.76 138.88C141.22 141.44 144.04 130.17 141.83 122.47C138.71 111.64 123.58 115.23 123.41 101.88Z" stroke="#BF6227" stroke-width="2"/>
<path d="M109.016 94.1747C109.241 94.1582 109.46 94.0905 109.661 93.9754C109.862 93.8604 110.04 93.7003 110.186 93.5043C110.332 93.3083 110.442 93.0803 110.511 92.8331C110.579 92.586 110.605 92.3246 110.585 92.064C110.547 91.5376 110.329 91.0461 109.98 90.6975C109.631 90.349 109.179 90.1719 108.724 90.2053C108.499 90.2218 108.28 90.2895 108.079 90.4046C107.878 90.5196 107.7 90.6797 107.554 90.8757C107.408 91.0717 107.298 91.2997 107.229 91.5469C107.161 91.794 107.135 92.0554 107.155 92.316C107.193 92.8424 107.411 93.3339 107.76 93.6825C108.109 94.031 108.561 94.2081 109.016 94.1747Z" stroke="#999A99" stroke-width="2"/>
<path d="M137.26 91.59C136.17 88.26 126.37 86.82 123.56 86.85C121.713 86.87 120.213 86.63 119.06 86.13C115.34 84.53 111.93 82.61 107.6 81.99C100.67 81 94.19 80.8 87.97 84.24C79.67 88.82 74.8 99.49 72.05 108.52C65.53 129.93 60.93 156.18 42.98 171.83C40.14 174.31 37.31 174.43 33.86 173.74C33.6964 173.706 33.5496 173.615 33.444 173.484C33.3385 173.353 33.2806 173.189 33.28 173.02L33.39 77.19C33.3913 77.0657 33.3677 76.9424 33.3206 76.8272C33.2734 76.712 33.2037 76.6072 33.1153 76.5189C33.027 76.4305 32.9218 76.3604 32.8059 76.3125C32.69 76.2647 32.5656 76.24 32.44 76.24L23.96 76.27C23.18 76.27 23.0767 76.0067 23.65 75.48C24.19 74.9867 24.84 74.45 25.6 73.87C48.28 56.5033 70.8267 39.2867 93.24 22.22C93.6114 21.9377 94.0654 21.785 94.533 21.785C95.0005 21.785 95.456 21.9377 95.83 22.22L165.78 75.42C165.858 75.4779 165.916 75.5591 165.946 75.652C165.975 75.745 165.974 75.8448 165.943 75.9371C165.911 76.0294 165.852 76.1094 165.772 76.1657C165.693 76.2219 165.597 76.2514 165.5 76.25L155.43 76.16C155.342 76.16 155.255 76.1771 155.174 76.2102C155.092 76.2434 155.018 76.292 154.956 76.3533C154.894 76.4146 154.845 76.4874 154.811 76.5674C154.777 76.6475 154.76 76.7333 154.76 76.82L154.65 173.02C154.65 173.264 154.553 173.498 154.381 173.671C154.208 173.843 153.974 173.94 153.73 173.94L137.99 173.92C137.766 173.921 137.548 173.85 137.366 173.719C137.185 173.588 137.05 173.403 136.98 173.19C136.44 171.57 135.74 169.873 134.88 168.1C128.77 155.54 121.9 143.21 117.02 130.11C114.307 122.81 113.883 115.377 115.75 107.81C118.49 96.67 127.41 95.2 136.79 92.47C136.88 92.4435 136.964 92.3994 137.036 92.3405C137.109 92.2815 137.169 92.2088 137.213 92.1268C137.256 92.0447 137.283 91.9549 137.291 91.8627C137.299 91.7705 137.289 91.6778 137.26 91.59ZM125.94 62.23C126.187 61.1967 126.437 60.1633 126.69 59.13C127.623 55.35 126.32 52.79 122.78 51.45C116.02 48.88 108.79 51.51 103.21 55.73C102.163 56.5167 101.07 57.2633 99.93 57.97C99.6433 58.1567 99.3367 58.1933 99.01 58.08C94.04 56.37 89.25 56.86 86.29 61.52C82.38 67.68 80.37 78.2 78.76 85.77C78.5667 86.6833 78.8367 86.85 79.57 86.27C87.12 80.3 94.09 77.32 103.95 78.84C109.197 79.6533 114.133 81.3433 118.76 83.91C119.827 84.5033 120.683 84.5733 121.33 84.12C123.797 82.4067 126.243 80.6667 128.67 78.9C133.44 75.42 135.81 69.16 130.45 64.95C129.27 64.02 127.8 63.51 126.32 62.96C125.98 62.8267 125.853 62.5833 125.94 62.23ZM123.41 101.88C123.403 101.327 123.307 100.83 123.12 100.39C123.081 100.296 123.017 100.215 122.935 100.156C122.852 100.097 122.755 100.062 122.654 100.056C122.553 100.05 122.452 100.072 122.363 100.121C122.273 100.169 122.2 100.242 122.15 100.33C116.577 110.01 115.95 119.887 120.27 129.96C122.297 134.693 125.793 137.667 130.76 138.88C141.22 141.44 144.04 130.17 141.83 122.47C138.71 111.64 123.58 115.23 123.41 101.88Z" fill="#FF8204"/>
<path d="M126.32 62.96C127.8 63.51 129.27 64.02 130.45 64.95C135.81 69.16 133.44 75.42 128.67 78.9C126.243 80.6667 123.797 82.4067 121.33 84.12C120.683 84.5733 119.827 84.5033 118.76 83.91C114.133 81.3433 109.197 79.6533 103.95 78.84C94.09 77.32 87.12 80.3 79.57 86.27C78.8367 86.85 78.5667 86.6833 78.76 85.77C80.37 78.2 82.38 67.68 86.29 61.52C89.25 56.86 94.04 56.37 99.01 58.08C99.3367 58.1933 99.6433 58.1567 99.93 57.97C101.07 57.2633 102.163 56.5167 103.21 55.73C108.79 51.51 116.02 48.88 122.78 51.45C126.32 52.79 127.623 55.35 126.69 59.13C126.437 60.1633 126.187 61.1967 125.94 62.23C125.853 62.5833 125.98 62.8267 126.32 62.96Z" fill="#7F4249"/>
<path d="M112.381 92.05C112.418 92.6543 112.332 93.2601 112.128 93.833C111.924 94.4058 111.606 94.9344 111.191 95.3886C110.777 95.8428 110.275 96.2137 109.714 96.4802C109.153 96.7466 108.544 96.9033 107.921 96.9414C106.664 97.0183 105.428 96.6072 104.487 95.7987C103.545 94.9902 102.974 93.8503 102.899 92.63C102.862 92.0257 102.948 91.4199 103.152 90.847C103.356 90.2742 103.674 89.7456 104.089 89.2914C104.503 88.8372 105.005 88.4663 105.566 88.1998C106.127 87.9334 106.736 87.7767 107.359 87.7386C108.616 87.6617 109.852 88.0728 110.793 88.8813C111.735 89.6898 112.306 90.8297 112.381 92.05ZM109.016 94.1747C109.241 94.1582 109.46 94.0905 109.661 93.9754C109.862 93.8604 110.04 93.7003 110.186 93.5043C110.332 93.3083 110.442 93.0803 110.511 92.8331C110.579 92.586 110.605 92.3246 110.585 92.064C110.547 91.5376 110.329 91.0461 109.98 90.6975C109.631 90.349 109.179 90.1719 108.724 90.2053C108.499 90.2218 108.28 90.2895 108.079 90.4046C107.878 90.5196 107.7 90.6797 107.554 90.8757C107.408 91.0717 107.298 91.2997 107.229 91.5469C107.161 91.794 107.135 92.0554 107.155 92.316C107.193 92.8424 107.411 93.3339 107.76 93.6825C108.109 94.031 108.561 94.2081 109.016 94.1747Z" fill="#353736"/>
<path d="M107.155 92.316C107.235 93.4121 108.068 94.2442 109.016 94.1747C109.963 94.1051 110.666 93.1601 110.585 92.064C110.505 90.9679 109.672 90.1358 108.724 90.2053C107.777 90.2749 107.074 91.2199 107.155 92.316Z" fill="#FDFCFB"/>
<path d="M123.41 101.88C123.58 115.23 138.71 111.64 141.83 122.47C144.04 130.17 141.22 141.44 130.76 138.88C125.793 137.667 122.297 134.693 120.27 129.96C115.95 119.887 116.577 110.01 122.15 100.33C122.2 100.242 122.273 100.169 122.363 100.121C122.452 100.072 122.553 100.05 122.654 100.056C122.755 100.062 122.852 100.097 122.935 100.156C123.017 100.215 123.081 100.296 123.12 100.39C123.307 100.83 123.403 101.327 123.41 101.88Z" fill="#7F4249"/>
<path d="M34.297 194.6C34.297 192.952 34.665 191.48 35.401 190.184C36.153 188.872 37.169 187.856 38.449 187.136C39.745 186.4 41.193 186.032 42.793 186.032C44.665 186.032 46.305 186.512 47.713 187.472C49.121 188.432 50.105 189.76 50.665 191.456H46.801C46.417 190.656 45.873 190.056 45.169 189.656C44.481 189.256 43.681 189.056 42.769 189.056C41.793 189.056 40.921 189.288 40.153 189.752C39.401 190.2 38.809 190.84 38.377 191.672C37.961 192.504 37.753 193.48 37.753 194.6C37.753 195.704 37.961 196.68 38.377 197.528C38.809 198.36 39.401 199.008 40.153 199.472C40.921 199.92 41.793 200.144 42.769 200.144C43.681 200.144 44.481 199.944 45.169 199.544C45.873 199.128 46.417 198.52 46.801 197.72H50.665C50.105 199.432 49.121 200.768 47.713 201.728C46.321 202.672 44.681 203.144 42.793 203.144C41.193 203.144 39.745 202.784 38.449 202.064C37.169 201.328 36.153 200.312 35.401 199.016C34.665 197.72 34.297 196.248 34.297 194.6ZM61.0229 189.512C62.0309 189.512 62.9269 189.736 63.7109 190.184C64.4949 190.616 65.1029 191.264 65.5349 192.128C65.9829 192.976 66.2069 194 66.2069 195.2V203H62.8469V195.656C62.8469 194.6 62.5829 193.792 62.0549 193.232C61.5269 192.656 60.8069 192.368 59.8949 192.368C58.9669 192.368 58.2309 192.656 57.6869 193.232C57.1589 193.792 56.8949 194.6 56.8949 195.656V203H53.5349V185.24H56.8949V191.36C57.3269 190.784 57.9029 190.336 58.6229 190.016C59.3429 189.68 60.1429 189.512 61.0229 189.512ZM71.1061 188.12C70.5141 188.12 70.0181 187.936 69.6181 187.568C69.2341 187.184 69.0421 186.712 69.0421 186.152C69.0421 185.592 69.2341 185.128 69.6181 184.76C70.0181 184.376 70.5141 184.184 71.1061 184.184C71.6981 184.184 72.1861 184.376 72.5701 184.76C72.9701 185.128 73.1701 185.592 73.1701 186.152C73.1701 186.712 72.9701 187.184 72.5701 187.568C72.1861 187.936 71.6981 188.12 71.1061 188.12ZM72.7621 189.704V203H69.4021V189.704H72.7621ZM75.2178 196.352C75.2178 194.976 75.4978 193.776 76.0578 192.752C76.6178 191.712 77.3938 190.912 78.3858 190.352C79.3778 189.776 80.5138 189.488 81.7938 189.488C83.4418 189.488 84.8018 189.904 85.8738 190.736C86.9618 191.552 87.6898 192.704 88.0578 194.192H84.4338C84.2418 193.616 83.9138 193.168 83.4498 192.848C83.0018 192.512 82.4418 192.344 81.7698 192.344C80.8098 192.344 80.0498 192.696 79.4898 193.4C78.9298 194.088 78.6498 195.072 78.6498 196.352C78.6498 197.616 78.9298 198.6 79.4898 199.304C80.0498 199.992 80.8098 200.336 81.7698 200.336C83.1298 200.336 84.0178 199.728 84.4338 198.512H88.0578C87.6898 199.952 86.9618 201.096 85.8738 201.944C84.7858 202.792 83.4258 203.216 81.7938 203.216C80.5138 203.216 79.3778 202.936 78.3858 202.376C77.3938 201.8 76.6178 201 76.0578 199.976C75.4978 198.936 75.2178 197.728 75.2178 196.352ZM98.3913 203L93.8793 197.336V203H90.5193V185.24H93.8793V195.344L98.3433 189.704H102.711L96.8553 196.376L102.759 203H98.3913ZM122.799 186.248V203H119.439V192.104L114.951 203H112.407L107.895 192.104V203H104.535V186.248H108.351L113.679 198.704L119.007 186.248H122.799ZM138.481 196.064C138.481 196.544 138.449 196.976 138.385 197.36H128.665C128.745 198.32 129.081 199.072 129.673 199.616C130.265 200.16 130.993 200.432 131.857 200.432C133.105 200.432 133.993 199.896 134.521 198.824H138.145C137.761 200.104 137.025 201.16 135.937 201.992C134.849 202.808 133.513 203.216 131.929 203.216C130.649 203.216 129.497 202.936 128.473 202.376C127.465 201.8 126.673 200.992 126.097 199.952C125.537 198.912 125.257 197.712 125.257 196.352C125.257 194.976 125.537 193.768 126.097 192.728C126.657 191.688 127.441 190.888 128.449 190.328C129.457 189.768 130.617 189.488 131.929 189.488C133.193 189.488 134.321 189.76 135.313 190.304C136.321 190.848 137.097 191.624 137.641 192.632C138.201 193.624 138.481 194.768 138.481 196.064ZM135.001 195.104C134.985 194.24 134.673 193.552 134.065 193.04C133.457 192.512 132.713 192.248 131.833 192.248C131.001 192.248 130.297 192.504 129.721 193.016C129.161 193.512 128.817 194.208 128.689 195.104H135.001ZM140.069 196.304C140.069 194.96 140.333 193.768 140.861 192.728C141.405 191.688 142.141 190.888 143.069 190.328C143.997 189.768 145.029 189.488 146.165 189.488C147.029 189.488 147.853 189.68 148.637 190.064C149.421 190.432 150.045 190.928 150.509 191.552V185.24H153.917V203H150.509V201.032C150.093 201.688 149.509 202.216 148.757 202.616C148.005 203.016 147.133 203.216 146.141 203.216C145.021 203.216 143.997 202.928 143.069 202.352C142.141 201.776 141.405 200.968 140.861 199.928C140.333 198.872 140.069 197.664 140.069 196.304ZM150.533 196.352C150.533 195.536 150.373 194.84 150.053 194.264C149.733 193.672 149.301 193.224 148.757 192.92C148.213 192.6 147.629 192.44 147.005 192.44C146.381 192.44 145.805 192.592 145.277 192.896C144.749 193.2 144.317 193.648 143.981 194.24C143.661 194.816 143.501 195.504 143.501 196.304C143.501 197.104 143.661 197.808 143.981 198.416C144.317 199.008 144.749 199.464 145.277 199.784C145.821 200.104 146.397 200.264 147.005 200.264C147.629 200.264 148.213 200.112 148.757 199.808C149.301 199.488 149.733 199.04 150.053 198.464C150.373 197.872 150.533 197.168 150.533 196.352Z" fill="#7F4249"/>
</svg>
